<svg xmlns="http://www.w3.org/2000/svg" viewBox="0 0 317.89 149.54"><defs><style>.cls-1,.cls-3{fill:none;stroke-miterlimit:10;}.cls-1{stroke:#00c1e9;stroke-width:12px;}.cls-2{opacity:0.6;}.cls-3{stroke:#afcbce;stroke-width:6px;}.cls-4{fill:#4865a1;}.cls-5{fill:#0b1016;opacity:0.3;}.cls-6{opacity:0.4;}.cls-7{fill:#6a9ddb;}.cls-8{fill:#3b527a;}</style></defs><title>Asset 3</title><g id="Layer_2" data-name="Layer 2"><g id="Layer_2-2" data-name="Layer 2"><line class="cls-1" x1="157.04" y1="141.88" x2="0.9" y2="143.54"/><line class="cls-1" x1="179.99" y1="141.63" x2="170.46" y2="141.74"/><line class="cls-1" x1="317.82" y1="140.16" x2="205.34" y2="141.36"/><g class="cls-2"><line class="cls-3" x1="156.17" y1="138.82" x2="0.03" y2="140.48"/><line class="cls-3" x1="179.12" y1="138.58" x2="169.59" y2="138.68"/><line class="cls-3" x1="316.95" y1="137.11" x2="204.47" y2="138.31"/></g><path class="cls-4" d="M158.15,28.47h0c6.36-2.47,18.88,3,17.41,12.13a8.63,8.63,0,0,0,.17,3.54l15.17,57.41c4.23,14-.65,18.83-7.35,23.11h0c-8.8,5.24-14.38-3.54-17.05-13.64L150.8,51.58C148.13,41.48,151.44,31.08,158.15,28.47Z"/><path class="cls-4" d="M218,4.47h0c3.22,4.88.1,12.33-6.93,16.54l-41.4,24.78c-7,4.21-13.69,11.41-16.91,6.53l-2.41-4c-1.92-6.37,2-17,7.6-20.28l41.4-24.78C206.37-1,214.76-.41,218,4.47Z"/><path class="cls-5" d="M218,4.05h0c-3.22-4.88-11.61-5.43-18.65-1.22l-41.4,24.78a11.52,11.52,0,0,0-2.62,2.19c-3.07,2.64-5,7.22-5.36,12.46a16.33,16.33,0,0,0,0,3.63,27.83,27.83,0,0,0,.86,5.27l15.7,59.45c2.67,10.1,8.25,18.87,17.05,13.63,6.69-4.27,11.58-9.1,7.35-23.1L175.73,43.72a8.08,8.08,0,0,1-.26-1.83l35.58-21.3C218.08,16.38,221.2,8.94,218,4.05Z"/><ellipse class="cls-4" cx="83.36" cy="47.99" rx="21.39" ry="27.23" transform="translate(-11.08 29.76) rotate(-19)"/><path class="cls-4" d="M247.69,72h0c4.19,5.4,7.47,10.46-2.75,16.57-1,.61-6.22,4.14-7.24,4.76L187,124.25c-12.21,8.05-18.23,4.75-24.24-.45h0c-7.54-6.94-.72-14.79,8.2-20.23l55.34-29.79C237.47,68.87,243.48,68.09,247.69,72Z"/><path class="cls-4" d="M295,57.41h0c2.44,5.32-1.78,12.2-9.38,15.29L241,90.85c-7.6,3.09-15.28,9.19-17.71,3.87l-1.77-4.33C220.56,83.8,226,73.9,232.1,71.51l44.7-18.16C284.4,50.27,292.61,52.1,295,57.41Z"/><path class="cls-4" d="M166.08,131.75l-36.41.53a19.19,19.19,0,0,1-19.42-18.86h0A19.19,19.19,0,0,1,129.11,94l36.41-.54c10.53-.15,20.9-1.59,25.28,8.81l1.53,8.21C192.49,121,181.35,131.33,166.08,131.75Z"/><path class="cls-4" d="M114.19,126.5,88,108.59a19.21,19.21,0,0,1-4.09-26.77h0a19.19,19.19,0,0,1,26.76-4.09L140,99.28a19.21,19.21,0,0,1,4.09,26.77h0C139.6,131.6,122.68,132.73,114.19,126.5Z"/><path class="cls-4" d="M28.5,82.63h0c1.74-4,6.87-6.09,11.4-4.53l35,12.06c4.53,1.56,6.81,6.16,5.06,10.21h0c-1.74,4-6.87,6.1-11.4,4.54l-35-12.07C29,91.28,26.76,86.69,28.5,82.63Z"/><path class="cls-4" d="M54.37,45.58h0c4.52,1.59,6.77,6.19,5,10.24L45.68,87.11c-1.77,4-6.92,6.06-11.43,4.48h0c-4.52-1.59-6.77-6.19-5-10.24L42.94,50.06C44.71,46,49.85,44,54.37,45.58Z"/><path class="cls-5" d="M74.94,89.86,48.35,80.71l11-25.19c1.77-4-.48-8.65-5-10.23s-9.66.42-11.43,4.47L29.32,80.89a7.87,7.87,0,0,0-.82,1.44h0C26.76,86.39,29,91,33.57,92.54l35,12.07c4.53,1.56,9.66-.48,11.4-4.54h0C81.75,96,79.47,91.42,74.94,89.86Z"/><rect class="cls-4" x="118.81" y="34.45" width="17.64" height="55.18" rx="8.82" transform="translate(45.68 -53.81) rotate(28.8)"/><path class="cls-4" d="M101.48,35.62h0c-.71,4.28,1.88,8.44,5.77,9.23L137.33,51c3.89.79,7.65-2.06,8.36-6.34h0c.71-4.28-1.89-8.43-5.77-9.23l-30.08-6.15C106,28.49,102.19,31.34,101.48,35.62Z"/><g class="cls-6"><rect class="cls-7" x="118.81" y="34.45" width="17.64" height="55.18" rx="8.82" transform="translate(45.68 -53.81) rotate(28.8)"/><path class="cls-7" d="M101.48,35.62h0c-.71,4.28,1.88,8.44,5.77,9.23L137.33,51c3.89.79,7.65-2.06,8.36-6.34h0c.71-4.28-1.89-8.43-5.77-9.23l-30.08-6.15C106,28.49,102.19,31.34,101.48,35.62Z"/></g><path class="cls-8" d="M146.58,108.5h0a1.24,1.24,0,0,1-1.88.1L134.29,97.82a1.62,1.62,0,0,1,0-2.09h0a1.24,1.24,0,0,1,1.88-.1l10.41,10.78A1.62,1.62,0,0,1,146.58,108.5Z"/><path class="cls-8" d="M150.35,103.49h0a1.24,1.24,0,0,1-1.72.76l-13.54-6.42a1.59,1.59,0,0,1-.78-1.94h0a1.25,1.25,0,0,1,1.72-.76l13.54,6.42A1.6,1.6,0,0,1,150.35,103.49Z"/><path class="cls-8" d="M157.55,99.31h0c0,.78-.86,1.3-1.83,1.15l-19.3-3a1.89,1.89,0,0,1-1.72-1.71h0c0-.79.85-1.31,1.83-1.16l19.29,3A1.91,1.91,0,0,1,157.55,99.31Z"/></g></g></svg>