<svg xmlns="http://www.w3.org/2000/svg" viewBox="0 0 285.03 246.02"><defs><style>.cls-1,.cls-3{fill:none;stroke-miterlimit:10;}.cls-1{stroke:#00c1e9;stroke-width:10.76px;}.cls-2{opacity:0.6;}.cls-3{stroke:#afcbce;stroke-width:5.38px;}.cls-4{fill:#4865a1;}.cls-5{fill:#0b1016;opacity:0.2;}</style></defs><title>Asset 2</title><g id="Layer_2" data-name="Layer 2"><g id="Layer_1-2" data-name="Layer 1"><line class="cls-1" x1="140.81" y1="239.15" x2="0.81" y2="240.64"/><line class="cls-1" x1="161.39" y1="238.93" x2="152.84" y2="239.02"/><line class="cls-1" x1="284.97" y1="237.61" x2="184.12" y2="238.69"/><g class="cls-2"><line class="cls-3" x1="140.03" y1="236.4" x2="0.03" y2="237.9"/><line class="cls-3" x1="160.61" y1="236.19" x2="152.06" y2="236.28"/><line class="cls-3" x1="284.19" y1="234.87" x2="183.33" y2="235.94"/></g><ellipse class="cls-4" cx="156.12" cy="33.53" rx="33.62" ry="24.58" transform="translate(106.04 185.16) rotate(-83.84)"/><rect class="cls-4" x="133.44" y="76.73" width="44.94" height="105.89" rx="22.47"/><rect class="cls-4" x="83.51" y="24.46" width="24.26" height="128.95" rx="12.13" transform="translate(6.71 184.57) rotate(-90)"/><path class="cls-4" d="M179.64,148.45h0c3.7,6.26,11.8,13.48,4.93,17.55L66,231.16c-6.88,4.07-15.54,2.28-19.25-4h0c-3.71-6.26-1.11-14.72,5.77-18.79l96.16-65.22C155.51,139.09,175.93,142.19,179.64,148.45Z"/><rect class="cls-4" x="201.59" y="24.28" width="24.26" height="128.95" rx="12.13" transform="translate(124.97 302.47) rotate(-90)"/><rect class="cls-4" x="167.09" y="120.61" width="34.58" height="90.08" rx="12.1" transform="translate(18.73 350.03) rotate(-90)"/><rect class="cls-4" x="198.29" y="160.76" width="31.28" height="69.06" rx="10.08" transform="translate(-0.2 0.22) rotate(-0.06)"/><path class="cls-5" d="M133.69,153.35s1.49,5.61,12.48,9.75c0,0-11,.61-14.33-3.52s-2.77-5.23-2.77-5.23Z"/><path class="cls-5" d="M128.23,157.25s1.49,5.61,12.48,9.75c0,0-11,.61-14.33-3.52s-2.77-5.23-2.77-5.23Z"/></g></g></svg>