<svg xmlns="http://www.w3.org/2000/svg" viewBox="0 0 198.47 127.78"><defs><style>.cls-1{fill:#fdb107;}.cls-2{fill:#c27a2e;}.cls-3{fill:#110d0a;opacity:0.1;}.cls-4{fill:#fc6d0b;}.cls-5{fill:#f45f44;}.cls-6{fill:#f7f6f6;}</style></defs><title>Asset 10</title><g id="Layer_2" data-name="Layer 2"><g id="Layer_3" data-name="Layer 3"><path class="cls-1" d="M91.48,10.15c18.76,22.32,16.12,58.34-5.83,79.27C63.4,110.64,26.15,112,4.87,92.32,2,89.7-.73,87,1.14,82.71c2.11-4.81,6.21-5.61,11-5.12,26.74,2.72,46.93-7.78,60.65-30.69,6-10.11,6.79-21.74,8.51-33C84.07,10.87,87.68,10.26,91.48,10.15Z"/><path class="cls-2" d="M91.48,10.15c-3.8.11-7.41.72-10.14,3.71a4.3,4.3,0,0,1-.39-.92C80.24,8.35,76.66,2.1,83.46.31,90.67-1.59,90.11,5.7,91.48,10.15Z"/><path class="cls-3" d="M86.88,12.07s3.7,7.23,3.7,14.83-1,23.26-8,33.9S65,81.55,55,86.18s-21.86,4.07-30.56,3S6.1,83.21,3,81.92s-3.34,2.77-2.6,5S13.7,103,31.3,105.44s40.2-3.52,51.87-14.26,20.38-24.45,20.56-38,0-25-4.81-32.6S93.48,9.72,91.48,10.15,87.06,9.85,86.88,12.07Z"/><ellipse class="cls-4" cx="155.07" cy="85.23" rx="43.4" ry="42.55"/><ellipse class="cls-5" cx="151.1" cy="86.37" rx="39.04" ry="37.41"/><path class="cls-6" d="M150.63,45.79c21.61-.52,37.78,17.7,38.42,36.93.84,25-16.61,41.42-37.57,41.76-23,.38-38.61-18.07-39-38.8C111.93,62.36,131.51,44.94,150.63,45.79ZM132.78,83.63c2.42,0,4.83,0,7.25,0,1.08,0,2.41.36,3-1s-.21-2.42-1.15-3.37c-3.82-3.82-7.56-7.72-11.45-11.46-2.78-2.68-5.33-2.14-7,1.47a65.76,65.76,0,0,0-3.2,8.34c-1.09,3.58.54,5.73,4.41,6C127.37,83.75,130.08,83.62,132.78,83.63Zm25.72-30c-3-.12-4.8.86-4.87,3.26-.16,6.14-.15,12.3,0,18.44.05,2.05,1.36,3,3.1,1.26,4-4,8.08-8.08,11.93-12.29,1.78-1.94,1.92-4.61-.35-6C165.09,56.25,161.4,55,158.5,53.62Zm11.32,30c2.57,0,5.15.17,7.7-.05,3-.26,4.88-2.07,4.09-5.18a45.11,45.11,0,0,0-3.55-9.57c-1.14-2.18-3.36-3.29-5.63-1.07-4,3.89-7.87,7.86-11.79,11.81-.73.73-1.36,1.53-.92,2.64.51,1.29,1.65,1.42,2.83,1.42ZM148.45,65.85V62c0-1.42,0-2.84,0-4.26-.14-3.41-2.05-4.93-5.29-3.91A69.61,69.61,0,0,0,135.25,57c-3.3,1.49-4.1,4.1-1.7,6.78,3.69,4.12,7.69,8,11.65,11.86,1.8,1.76,3.12,1.33,3.21-1.29C148.52,71.54,148.44,68.7,148.45,65.85Zm-6.09,24.82c.1-1.57-.87-1.93-2.17-1.92-5.56,0-11.13-.14-16.69.07-2.59.1-4,2-3.13,4.47a66.62,66.62,0,0,0,4.1,9.38c.91,1.75,2.8,2.94,4.65,1.64,5-3.53,9-8.24,13-12.83C142.32,91.3,142.3,91,142.36,90.67Zm11.2,13.87c0,2.7-.15,5.41,0,8.09.23,3.41,2.28,4.72,5.5,3.56a79.65,79.65,0,0,0,7.44-3.14c3.22-1.55,3.78-4.11,1.39-6.84-3.36-3.83-7.38-7.07-10.46-11.18a2.45,2.45,0,0,0-2.66-1c-1.49.41-1.23,1.72-1.24,2.82C153.52,99.42,153.55,102,153.56,104.54Zm-5.12.54c0-2.56,0-5.12,0-7.68,0-1,.09-2.09-1.16-2.45-1-.26-1.62.38-2.22,1-3.51,3.52-7.14,7-10.48,10.64-2.64,2.91-2,5.28,1.65,7,2.17,1,4.42,1.94,6.68,2.77,3.1,1.14,5.33-.3,5.51-3.61C148.55,110.21,148.44,107.64,148.44,105.08Zm21.71-16.35c-2.42,0-4.83,0-7.24,0-1,0-2.14-.17-2.63.94s.21,1.95.89,2.65c3.36,3.47,6.65,7,10.19,10.28,2.71,2.5,5.16,1.91,6.79-1.43A55.78,55.78,0,0,0,181,94.1c1.13-3.41-.09-5.17-3.63-5.34C175,88.65,172.56,88.74,170.15,88.73Z"/></g></g></svg>