<svg xmlns="http://www.w3.org/2000/svg" viewBox="0 0 285.09 232.85"><defs><style>.cls-1,.cls-3{fill:none;stroke-miterlimit:10;}.cls-1{stroke:#00c1e9;stroke-width:10.76px;}.cls-2{opacity:0.6;}.cls-3{stroke:#afcbce;stroke-width:5.38px;}.cls-4{fill:#4865a1;}.cls-5{opacity:0.4;}.cls-6{opacity:0.2;}</style></defs><title>Asset 4</title><g id="Layer_2" data-name="Layer 2"><g id="Layer_1-2" data-name="Layer 1"><line class="cls-1" x1="140.84" y1="224.76" x2="0.86" y2="227.47"/><line class="cls-1" x1="161.41" y1="224.36" x2="152.87" y2="224.52"/><line class="cls-1" x1="284.98" y1="221.96" x2="184.14" y2="223.92"/><g class="cls-2"><line class="cls-3" x1="140.04" y1="222.02" x2="0.05" y2="224.74"/><line class="cls-3" x1="160.61" y1="221.62" x2="152.06" y2="221.79"/><line class="cls-3" x1="284.18" y1="219.23" x2="183.33" y2="221.18"/></g><path class="cls-4" d="M158.36,218.36l-22.36.19a13.9,13.9,0,0,1-14-13.74L109.42,85a13.91,13.91,0,0,1,10.07-13.45,71.75,71.75,0,0,0,10.6-3.76l8.75-4.07,14-.12,9.26,4.11a53.18,53.18,0,0,0,9.75,3.26,13.93,13.93,0,0,1,10.78,13.39L172.1,204.37A13.91,13.91,0,0,1,158.36,218.36Z"/><path class="cls-5" d="M158.46,218.39l-22.35.2a13.91,13.91,0,0,1-14-13.74L109.52,85A13.93,13.93,0,0,1,119.6,71.54a72.12,72.12,0,0,0,10.6-3.75l8.74-4.07,14-.12,9.26,4.11A52.83,52.83,0,0,0,171.93,71a13.92,13.92,0,0,1,10.78,13.39L172.2,204.41A13.89,13.89,0,0,1,158.46,218.39Z"/><path class="cls-4" d="M184.71,131.56,162.05,94.32c-3.15-5.16-4.43-11.52,1.94-15.84l6.72-4.35c5.56-3.38,12.68-1.92,15.83,3.25l16.77,40.83c3.15,5.17,1.17,12.17-4.39,15.55l-3.18,1.94C190.18,139.08,187.86,136.73,184.71,131.56Z"/><path class="cls-5" d="M184.73,131.56,162.06,94.32c-3.14-5.17-4.43-11.52,1.93-15.84l6.72-4.33c5.55-3.38,12.66-1.92,15.81,3.25l16.78,40.83c3.15,5.16,1.18,12.16-4.37,15.54l-3.18,1.93C190.2,139.08,187.88,136.73,184.73,131.56Z"/><path class="cls-4" d="M138.63,112.06l40.58,24.17c5.64,3.36,12.45,4.82,16.77-1.63l4.33-6.8a12,12,0,0,0-4.15-16.35L152,93.26a12,12,0,0,0-16.35,4.14l-1.92,3.23C130.39,106.26,133,108.71,138.63,112.06Z"/><path class="cls-6" d="M138.91,112.06l40.58,24.17c5.64,3.35,12.45,4.82,16.77-1.63l4.32-6.81a11.94,11.94,0,0,0-4.14-16.34L152.3,93.26A12,12,0,0,0,136,97.4L134,100.63C130.67,106.26,133.27,108.7,138.91,112.06Z"/><path class="cls-4" d="M88.63,127.18,105.43,83c2.34-6.13,6.75-11.51,14.09-9.16l7.55,2.62a11.92,11.92,0,0,1,6.82,15.36l-23.25,41.69a11.91,11.91,0,0,1-15.3,6.93l-3.49-1.32C85.77,136.83,86.3,133.31,88.63,127.18Z"/><path class="cls-5" d="M88.64,127.19,105.45,83c2.33-6.12,6.74-11.51,14.06-9.16l7.55,2.62a11.91,11.91,0,0,1,6.8,15.35l-23.24,41.69a11.91,11.91,0,0,1-15.29,6.94l-3.47-1.32C85.78,136.85,86.31,133.32,88.64,127.19Z"/><path class="cls-4" d="M150.65,112.12l-40.08,25c-5.57,3.47-12.35,5.07-16.8-1.29l-4.46-6.72a12,12,0,0,1,3.81-16.42l43.76-19.09a12,12,0,0,1,16.43,3.81l2,3.19C158.77,106.15,156.22,108.65,150.65,112.12Z"/><path class="cls-4" d="M146.56,219.67l70.36-3.5c9.77-.49,19.48-3.56,19.64-12.6l-.12-9.37c-.37-7.62-8.68-13.45-18.44-13l-70,11.59c-9.77.48-17.45,7.11-17.07,14.73l.21,4.36C131.56,219.53,136.79,220.16,146.56,219.67Z"/><path class="cls-6" d="M146.24,220l70.36-3.5c9.77-.49,19.47-3.57,19.64-12.6l-.12-9.38c-.38-7.61-8.68-13.44-18.45-13l-70,11.58c-9.76.49-17.44,7.12-17.07,14.74l.22,4.36C131.24,219.86,136.47,220.49,146.24,220Z"/><path class="cls-4" d="M151.32,219.2,80.9,216.92c-9.77-.31-19.53-3.22-19.85-12.25l0-9.38c.25-7.62,8.45-13.59,18.22-13.28l70.15,10.36c9.78.32,17.57,6.81,17.33,14.43l-.14,4.37C166.31,218.79,161.09,219.52,151.32,219.2Z"/><ellipse class="cls-4" cx="147.45" cy="33.54" rx="33.62" ry="24.58" transform="translate(99.53 176.96) rotate(-84.34)"/></g></g></svg>