<svg xmlns="http://www.w3.org/2000/svg" viewBox="0 0 310.68 241.99"><defs><style>.cls-1{fill:#f77759;}.cls-2{opacity:0.2;}.cls-3{fill:#f4d9d9;}.cls-4{fill:#ef583f;}.cls-5,.cls-7{fill:none;stroke-miterlimit:10;}.cls-5{stroke:#db9283;stroke-width:4.22px;}.cls-6{fill:#a36f66;}.cls-7{stroke:#a36f66;stroke-width:2.99px;}.cls-8{fill:#c27a2e;}.cls-9{fill:#f8cb8c;}.cls-10{fill:#f2bc36;}.cls-11{fill:#f9d673;}.cls-12{fill:#f2e1b6;}</style></defs><title>Asset 11</title><g id="Layer_2" data-name="Layer 2"><g id="Layer_3" data-name="Layer 3"><polyline class="cls-1" points="225.33 16.16 259.67 56.09 310.53 55.45 278.38 18.55 225.33 16.16"/><polyline class="cls-2" points="228.21 16.34 263.02 56.09 310.53 55.45 278.38 18.55 228.21 16.34"/><rect class="cls-3" x="185.84" y="56.09" width="77.18" height="167.16"/><polygon class="cls-1" points="263.02 56.09 185.84 56.09 225.33 16.16 263.02 56.09"/><polygon class="cls-3" points="224.73 0 225.33 16.16 278.38 18.55 277.43 9.85 224.73 0"/><polygon class="cls-1" points="310.53 222.61 262.8 223.24 262.8 56.09 310.53 55.45 310.53 222.61"/><rect class="cls-4" x="262.5" y="207.07" width="47.89" height="8.89"/><rect class="cls-1" x="185.17" y="206.86" width="77.44" height="8.89"/><rect class="cls-4" x="262.8" y="191.34" width="47.89" height="8.89"/><rect class="cls-1" x="185.48" y="191.14" width="77.44" height="8.89"/><rect class="cls-4" x="262.8" y="63.16" width="47.89" height="8.89"/><rect class="cls-1" x="185.48" y="62.96" width="77.44" height="8.89"/><path class="cls-5" d="M206.06,112.87l-4.22,33.53S204,169.8,224,169.17s22.77-18.34,22.14-23.61-4.22-32.48-4.22-32.48Z"/><path class="cls-6" d="M241.58,111.35s-.1-6.14-4.45-5.19-3,5.24-3,5.24Z"/><path class="cls-6" d="M205.91,111.64s.1-6.15,4.45-5.2,3,5.24,3,5.24Z"/><path class="cls-6" d="M203.31,111s-6.32-11-13.07.63S212.17,115.4,203.31,111Z"/><path class="cls-6" d="M244.05,109.71s6.33-11,13.07.63S235.2,114.14,244.05,109.71Z"/><line class="cls-7" x1="200.19" y1="148.24" x2="248.04" y2="147.85"/><rect class="cls-6" x="235.57" y="136.7" width="3.8" height="3.58" rx="1.79"/><rect class="cls-6" x="209.43" y="137.23" width="3.8" height="3.58" rx="1.79"/><polyline class="cls-2" points="262.8 54.55 262.55 223.42 310.53 222.61 310.53 55.45 263.02 56.09"/><ellipse class="cls-8" cx="88.31" cy="163.92" rx="74.43" ry="78.07"/><ellipse class="cls-9" cx="76.33" cy="163.92" rx="76.33" ry="78.07"/><path class="cls-8" d="M85.67,120.2c10.48-.07,10.48.06,10.48-10.14s-.56-10.77-9.49-10.71c-4.6,0-6.57,1.85-6.74,6.44-.11,2.85.13,5.72-.06,8.56C79.58,118.63,81.38,120.23,85.67,120.2Z"/><path class="cls-8" d="M96.11,215.17c-1-6.81-6.36-2.94-9.7-3.56-2.57-.48-6.49-1.42-6.51,3.58,0,3.44-.11,6.89,0,10.33s2,6,5.57,6.6c7.44,1.14,10.64-1.76,10.64-9.32V221A40.62,40.62,0,0,0,96.11,215.17Z"/><path class="cls-8" d="M88,146.36c-8.07,0-8.07,0-8.07,6.3,0,7.61,1.56,9.14,9.34,9.13,6.79,0,6.92-.18,6.91-8.77C96.15,146.36,96.15,146.36,88,146.36Z"/><path class="cls-8" d="M80.28,203.8c.25,1.38,1.61,2,3.07,2.28,10.87,2,13.21,0,12.8-10.92,0-.15,0-.3,0-.45.17-2.87-1.16-4.19-4-4-1.35.07-2.71,0-4.4,0-2.24.71-6-1.69-7.29,2S79.61,200.1,80.28,203.8Z"/><path class="cls-8" d="M89.27,125.52c-9.37,0-9.37,0-9.38,7.44,0,7.76.21,8,7.21,8,9.05,0,9.05,0,9.05-7.93C96.15,125.53,96.15,125.53,89.27,125.52Z"/><path class="cls-8" d="M116.11,125.94a1.87,1.87,0,0,0-1.27-.35q-5.64,0-11.27,0a2.24,2.24,0,0,0-2.31,1.81c-.82,3.84-1.29,7.9.1,11.51,1.3,3.38,5,1.63,7.4,2,1.5,0,2.71-.09,3.9,0,2.65.23,4.78-.75,4.86-3.44C117.65,133.65,119.2,129.45,116.11,125.94Z"/><path class="cls-8" d="M89.54,169.17c-7.48,0-9.63,2-9.65,9.07s0,7.07,9.93,7.06c6,0,6.33-.47,6.33-8S95.69,169.19,89.54,169.17Z"/><path class="cls-8" d="M109.05,120.14c.8,0,1.25,0,1.7,0,2.62-.07,5.66.78,6.7-2.9s-.26-6.18-3.39-8c-2.73-1.57-5.5-3.06-8.24-4.62-2-1.12-4-.7-4.48,1.27-1.07,4.06-1.42,8.42.32,12.34C103.19,121.72,106.79,119.51,109.05,120.14Z"/><path class="cls-8" d="M130.82,146.36a23.63,23.63,0,0,1-3.15,0c-4.24-.57-5.44,1.35-5.38,5.42.15,10.4.4,10.76,10.88,10,4.05-.27,5.9-2.79,6.31-6.38C140.29,148.3,138.29,146.33,130.82,146.36Z"/><path class="cls-8" d="M107.31,169.15a22,22,0,0,0-2.7.06c-1.37.21-2.78.74-3.18,2.17a18.41,18.41,0,0,0,.14,11.87c1.35,3.46,4.73,1.51,6.93,2.05,1.61,0,3-.09,4.31,0,3.28.27,4.84-1.53,4.92-4.47C118,169.25,118.28,168.86,107.31,169.15Z"/><path class="cls-8" d="M128.8,141c6.59,0,7.45-1.32,4.8-7.47-.82-1.91-2-3.69-2.8-5.61-1.31-3-3.84-2.54-6.18-2.19s-2.24,2.46-2.26,4.27c0,1.5,0,3,0,4.51C122.39,140.43,122.93,141,128.8,141Z"/><path class="cls-8" d="M139.52,176.68c0-5.42-2.71-7.51-9.84-7.52s-7.31.28-7.31,7.9c0,8.23,0,8.23,9.44,8.24C138.08,185.31,139.48,183.75,139.52,176.68Z"/><path class="cls-8" d="M114.38,146.52c-4.47.52-10.39-3-13.2,2.4-3.72,7.15.32,12.87,8.19,12.87,8.26,0,8.45-.2,8.41-8.68,0-.6,0-1.21,0-1.81C117.88,148.8,117.14,146.2,114.38,146.52Z"/><path class="cls-8" d="M100.85,223.58c.37,2.48,2,4,4.43,3.09a29,29,0,0,0,11.36-7.11c1.75-1.9,1.4-4.16.61-6.35s-2.57-1.73-4.2-1.75-3,0-4.51,0c-7.78,0-7.78,0-7.73,7.62A32.14,32.14,0,0,0,100.85,223.58Z"/><path class="cls-8" d="M117.78,194.35c-.34-2.25-1.47-3.57-3.81-3.64-1.5-.05-3,0-4.52,0-1,0-2.11,0-3.16,0-2.38-.12-5.2.06-5.27,2.86-.1,4-1.93,8.41,1.58,12a2.14,2.14,0,0,0,.8.39C113.06,209.38,119.3,204.35,117.78,194.35Z"/><path class="cls-8" d="M122.37,197.2c0,1.5,0,3,0,4.5,0,1.81-.15,3.85,2.25,4.27s4.59.39,5.95-2c1-1.82,2-3.7,2.89-5.59,3-6.37,2.23-7.71-4.64-7.69C122.37,190.71,122.37,190.71,122.37,197.2Z"/><path class="cls-8" d="M45.28,146.55c-.47-.38-1.45-.17-2.2-.18-1.2,0-2.4,0-3.6,0-1.36,0-2.71.09-4.06,0-3.36-.27-4.39,1.32-4.44,4.55-.17,10.91-.26,10.91,10.62,10.89h1.8c2.22.05,4.25-.64,3.86-3.17C46.65,154.57,49.51,149.92,45.28,146.55Z"/><path class="cls-8" d="M23.92,191.06c-3-.81-7-1.7-9.39.74s.09,5.35,1.17,7.88a21.89,21.89,0,0,0,2.94,5,4.66,4.66,0,0,0,7-.18c1.31-1.9.53-4.08.75-6.16C26.12,195.72,27.63,192,23.92,191.06Z"/><path class="cls-8" d="M38.52,169.16c-7,0-7.49.47-7.49,7.79,0,8.35,0,8.35,8.19,8.35,7.94,0,8.57-.47,8.73-6.59C48.19,169.65,47.71,169.17,38.52,169.16Z"/><path class="cls-8" d="M34.45,221.71c2.23,1.21,4.34,2.67,6.57,3.89,1.68.91,4.07,2.53,5.29.6,2.33-3.71.83-8.15.92-12.28.05-1.84-1.43-2.46-3.13-2.45l-1.35,0H39.59a16.88,16.88,0,0,0-2.25,0c-2.2.28-5.24-1.14-6.1,2.19S31.1,219.89,34.45,221.71Z"/><path class="cls-8" d="M46.74,192c-1.31-2.69-4.72-.73-6.75-1.27a31.25,31.25,0,0,1-3.53,0c-4.26-.54-5.49,1.53-5.48,5.51,0,9.92-.11,9.92,9.85,9.92,1.2,0,2.4,0,3.61,0s2.64-.62,2.77-1.87C47.66,200.11,48.58,195.74,46.74,192Z"/><path class="cls-8" d="M26.39,129.52c-.12-1.69-.41-3.53-2.4-3.85s-4.43-.75-5.71,1.51a55.46,55.46,0,0,0-4.3,8.88c-.69,1.95-.63,4.64,2.4,4.78,8.58.42,10.57.81,10-8.06C26.4,131.92,26.47,130.72,26.39,129.52Z"/><path class="cls-8" d="M26.36,173.26a4.15,4.15,0,0,0-1.93-3.38c-2.43-1.48-10.83-.9-13,1-3.92,3.54-2.11,7.82-1.19,11.79,1,4.52,5,1.79,7.21,2.61,9,0,9,0,9-8.44C26.43,175.66,26.47,174.45,26.36,173.26Z"/><path class="cls-8" d="M25.74,148.07c-1.35-3.32-4.84-1-7.55-1.91-2.39,1.34-6.28-1.86-8,2.52a15.55,15.55,0,0,0-.72,8.4c.43,2.61,2.27,4.61,4.87,4.53,3.86-.13,8.12,1.82,11.5-1.66a.85.85,0,0,0,.23-.38C26.57,155.71,27.2,151.7,25.74,148.07Z"/><path class="cls-8" d="M41.37,105.16c-2.77,1.49-5.36,3.31-8,5s-2.78,4.6-2.11,7.25,3.15,2.82,5.52,2.7c1,0,2.1,0,3.15,0,7.46,0,7.81-.35,7.52-7.85a32.39,32.39,0,0,0,.25-3.53C47.56,104.06,45.61,102.89,41.37,105.16Z"/><path class="cls-8" d="M55.05,206c.43.29,1.18.12,1.78.13h3.62c8.3,0,8.48-.18,8.48-8.22,0-6.92-.28-7.2-7.07-7.2-1.81,0-3.62.06-5.43,0-2.39-.08-4.12.95-3.65,3.37C53.56,198,50.29,202.82,55.05,206Z"/><path class="cls-8" d="M31.14,137.56a3.44,3.44,0,0,0,3.56,3.38c1.65.09,3.31,0,5,0,7.21,0,8-.39,8.2-5.18a70.68,70.68,0,0,0-.46-7.09c-.17-3.33-2.61-3.54-4.84-3.06-3.84.83-9.24-2.93-11.28,3C30.35,131.29,31,134.57,31.14,137.56Z"/><path class="cls-8" d="M59.16,169.15c-6,0-6.46.58-6.46,8.32s0,7.83,7.61,7.83c8.15,0,8.6-.37,8.61-7.15C68.93,171.19,66.69,169.13,59.16,169.15Z"/><path class="cls-8" d="M58.6,231.5a9.54,9.54,0,0,1,2.21.33c4.2.76,6.54-.73,7.69-4.84.86-3.12.36-6.29.4-9.44.06-5.73-.37-6.13-6.18-6.09-11.3.07-9.95-1.3-10,9.72a39.45,39.45,0,0,1,0,4.07C52.2,229.69,54.09,231.78,58.6,231.5Z"/><path class="cls-8" d="M61.91,146.36c-9.21,0-9.21,0-9.21,7.29,0,8.13,0,8.13,6.79,8.14,7.37,0,9.48-2.15,9.44-9.61C68.9,146.93,68.22,146.36,61.91,146.36Z"/><path class="cls-8" d="M58.36,120.19c10.56,0,10.56.1,10.57-10.61v-1.35c-.05-7.26-2-9.1-9.1-8.85-6.37.23-7.14,1-7.13,7.44V110a35.53,35.53,0,0,1,0,4.5C52.07,118.94,54.21,120.2,58.36,120.19Z"/><path class="cls-8" d="M67.47,126.37a2.27,2.27,0,0,0-1.58-.72c-3.59-.06-7.18-.05-10.77,0a1.94,1.94,0,0,0-2,1.47c-.57,4-1.22,8.17.27,11.92,1.24,3.12,4.75,1.59,7,1.91,1.08,0,1.83,0,2.57,0,2.49.13,5.29.19,5.64-2.95C69,134.12,70.22,130,67.47,126.37Z"/><path class="cls-10" d="M62.26,142l26.59,1.63c4.87.3,8.58,5.07,8.24,10.6L95.91,173.5c-.31,5,.13,14.34-4.56,11.11a12.17,12.17,0,0,0-4.79-2L60.05,178c-4.87-.3-8.58-5.07-8.24-10.6l1-15.92C53.12,146,57.39,141.7,62.26,142Z"/><path class="cls-11" d="M85.47,173.61H63.28a7.42,7.42,0,0,1-7.4-7.4V152a7.42,7.42,0,0,1,7.4-7.4l22.19,2.47a7.42,7.42,0,0,1,7.4,7.4v11.71A7.42,7.42,0,0,1,85.47,173.61Z"/><rect class="cls-12" x="63.28" y="148.33" width="23.43" height="4.32" rx="2.16" transform="matrix(0.99, 0.12, -0.12, 0.99, 18.65, -7.93)"/></g></g></svg>