<svg xmlns="http://www.w3.org/2000/svg" viewBox="0 0 317.89 146.4"><defs><style>.cls-1{fill:#4865a1;}.cls-2{fill:#0b1016;opacity:0.2;}.cls-3,.cls-5{fill:none;stroke-miterlimit:10;}.cls-3{stroke:#00c1e9;stroke-width:12px;}.cls-4{opacity:0.6;}.cls-5{stroke:#afcbce;stroke-width:6px;}.cls-6{fill:#6a9ddb;opacity:0.4;}.cls-7{fill:#3b527a;}</style></defs><title>Asset 1</title><g id="Layer_2" data-name="Layer 2"><g id="Layer_2-2" data-name="Layer 2"><rect class="cls-1" x="116.75" y="29.28" width="17.73" height="55.46" rx="8.87" transform="translate(44.63 -54.66) rotate(29.64)"/><path class="cls-1" d="M99.72,30.08h0c-.78,4.29,1.77,8.5,5.67,9.36l30.14,6.62c3.89.86,7.71-2,8.49-6.25h0c.78-4.29-1.77-8.5-5.67-9.36l-30.14-6.62C104.32,23,100.49,25.79,99.72,30.08Z"/><path class="cls-2" d="M138.57,30.67l-30.14-6.62c-3.9-.85-7.72,2-8.5,6.25s1.78,8.5,5.67,9.36l17.8,3.91L108.79,69.24A8.87,8.87,0,0,0,124.21,78l18.66-32.79A8.94,8.94,0,0,0,144,41c.08-.3.16-.6.22-.92C145,35.74,142.46,31.53,138.57,30.67Z"/><line class="cls-3" x1="157.04" y1="138.74" x2="0.9" y2="140.4"/><line class="cls-3" x1="179.99" y1="138.49" x2="170.46" y2="138.6"/><line class="cls-3" x1="317.82" y1="137.02" x2="205.34" y2="138.22"/><g class="cls-4"><line class="cls-5" x1="156.17" y1="135.68" x2="0.03" y2="137.35"/><line class="cls-5" x1="179.12" y1="135.44" x2="169.59" y2="135.54"/><line class="cls-5" x1="316.95" y1="133.97" x2="204.47" y2="135.17"/></g><ellipse class="cls-1" cx="88.99" cy="45.95" rx="21.5" ry="27.37" transform="translate(-9.89 30.03) rotate(-18.16)"/><path class="cls-1" d="M253.78,72.5h0c4.13,5.48,7.36,10.62-3,16.61-1,.6-6.31,4.07-7.34,4.68L192,124.12c-12.39,7.91-18.39,4.51-24.35-.8h0c-7.48-7.09-.51-14.88,8.54-20.22L232.27,74C243.56,69.21,249.61,68.51,253.78,72.5Z"/><path class="cls-1" d="M301.59,58.55h0c2.37,5.38-2,12.23-9.66,15.22L246.74,91.35c-7.68,3-15.49,9-17.86,3.63l-1.71-4.38c-.83-6.63,4.81-16.5,11-18.82L283.31,54.2C291,51.21,299.22,53.17,301.59,58.55Z"/><path class="cls-2" d="M301.59,58.55h0c-2.37-5.38-10.6-7.34-18.28-4.35L239,71.43c-2,.65-4.26,1.5-6.77,2.55L176.22,103.1c-9.05,5.34-16,13.13-8.54,20.22,6,5.31,12,8.71,24.35.8l51.4-30.33c.62-.37,2.75-1.75,4.58-2.93l43.92-17.09C299.61,70.78,304,63.93,301.59,58.55Z"/><path class="cls-1" d="M170.89,131.35h-36.6a19.3,19.3,0,0,1-19.24-19.24h0a19.29,19.29,0,0,1,19.24-19.24h36.6c10.58,0,21-1.3,25.28,9.22l1.42,8.27C197.59,120.94,186.24,131.16,170.89,131.35Z"/><path class="cls-1" d="M118.82,125.31,92.73,106.92A19.29,19.29,0,0,1,89,80h0a19.3,19.3,0,0,1,27-3.73l29.17,22.1a19.29,19.29,0,0,1,3.73,27h0C144.27,130.81,127.26,131.7,118.82,125.31Z"/><rect class="cls-1" x="54.03" y="62.14" width="17.73" height="59.96" rx="8.87" transform="translate(171.82 68.09) rotate(111.88)"/><rect class="cls-1" x="42.32" y="37.69" width="17.73" height="55.46" rx="8.87" transform="translate(73.83 145.34) rotate(-157.77)"/><path class="cls-6" d="M85.79,91.22,55.05,78.87l11.49-28.1a8.87,8.87,0,0,0-16.42-6.71L35.92,78.8a8.49,8.49,0,0,0-.85,1.61A8.9,8.9,0,0,0,40,91.94l39.18,15.74a8.87,8.87,0,1,0,6.61-16.46Z"/><path class="cls-1" d="M164.44,27.45h0c6.43-2.39,18.93,3.31,17.32,12.44a8.55,8.55,0,0,0,.12,3.56l14.39,57.92c4,14.13-.93,18.92-7.72,23.11h0c-8.92,5.14-14.4-3.76-16.93-14l-14.91-60C154.18,40.37,157.66,30,164.44,27.45Z"/><path class="cls-1" d="M224.92,4.21h0c3.17,5-.08,12.38-7.21,16.51l-42,24.3c-7.13,4.12-13.92,11.27-17.09,6.31l-2.36-4.06c-1.83-6.43,2.23-17.05,7.94-20.27l42-24.3C213.33-1.42,221.76-.75,224.92,4.21Z"/><path class="cls-7" d="M124.74,109.54h0a1.23,1.23,0,0,1-.34-1.84L133.78,96a1.61,1.61,0,0,1,2.07-.3h0a1.23,1.23,0,0,1,.34,1.85l-9.38,11.68A1.6,1.6,0,0,1,124.74,109.54Z"/><path class="cls-7" d="M130.18,112.66h0a1.24,1.24,0,0,1-1-1.61l4.66-14.24a1.61,1.61,0,0,1,1.83-1h0a1.24,1.24,0,0,1,1,1.61L132,111.64A1.62,1.62,0,0,1,130.18,112.66Z"/><path class="cls-7" d="M135.24,119.27h0c-.79.07-1.41-.68-1.38-1.67l.57-19.52a1.91,1.91,0,0,1,1.48-1.93h0c.79-.07,1.41.68,1.38,1.67l-.57,19.52A1.91,1.91,0,0,1,135.24,119.27Z"/></g></g></svg>