<svg xmlns="http://www.w3.org/2000/svg" viewBox="0 0 116.47 81.33"><defs><style>.cls-1{fill:#d3faff;}.cls-2{fill:#005fb3;}</style></defs><title>Asset 21</title><g id="Layer_2" data-name="Layer 2"><g id="Layer_2-2" data-name="Layer 2"><path class="cls-1" d="M96.79,22.7c5.11-.7,10.18-1.17,15.38-.35,2.66.42,3.45,1.4,3.82,4,4,27.24-17.37,53.8-44.82,54.38C59.82,81,48.26,82.43,37,79.7,13,73.9-3,50.24.49,26.35c.38-2.56,1.14-3.58,3.82-4,5.2-.81,10.27-.34,15.38.35l.44.45C16.89,41.07,21.6,56.78,35.41,68.44c16.78,14.18,26,14.86,42.58,2.5,15.9-11.88,21.69-28.22,18.37-47.79Z"/><path class="cls-1" d="M19.69,22.7c1.74-5,3.23-10.08,5.92-14.72C26.85,5.86,28.16,5.3,30.43,6c4,1.28,7.92,2.52,11.44,4.76,1.94,1.23,3.06,1.33,4.89-.67,12.41-13.53,10.57-13.48,23,0,1.83,2,2.86,1.65,4.9.71C90.71,3.41,89.44,2.32,95.78,19.9c.33.94.67,1.87,1,2.8l-.43.45a30.2,30.2,0,0,0-12.62,4.34c-4.16,2.8-5.39,1.18-6.41-2.89-.76-3-2.45-5.8-3.71-8.69-1.14-2.62-2.56-2.92-4.87-1.08a70.59,70.59,0,0,0-10.5,10.84c-3.47-4.09-6.76-8-10.93-11.12-2.1-1.56-3.24-1.1-4.19.93-1.42,3-3.14,5.94-4,9.11-1.06,4.05-2.25,5.72-6.42,2.91C29,25,24.61,23.81,20.13,23.15Z"/><path class="cls-2" d="M20.13,23.15C24.61,23.81,29,25,32.74,27.5c4.17,2.81,5.36,1.14,6.42-2.91.83-3.17,2.55-6.11,4-9.11.95-2,2.09-2.49,4.19-.93,4.17,3.11,7.46,7,10.93,11.12a70.59,70.59,0,0,1,10.5-10.84c2.31-1.84,3.73-1.54,4.87,1.08,1.26,2.89,2.95,5.67,3.71,8.69,1,4.07,2.25,5.69,6.41,2.89a30.2,30.2,0,0,1,12.62-4.34C99.68,42.72,93.89,59.06,78,70.94c-16.55,12.36-25.8,11.68-42.58-2.5C21.6,56.78,16.89,41.07,20.13,23.15Z"/></g></g></svg>