<svg xmlns="http://www.w3.org/2000/svg" viewBox="0 0 321.66 297.53"><defs><style>.cls-1{fill:#f9da55;}.cls-2{fill:#f8fbff;}.cls-3{fill:#10489b;opacity:0.05;}</style></defs><title>Asset 9</title><g id="Layer_2" data-name="Layer 2"><g id="Layer_3" data-name="Layer 3"><ellipse class="cls-1" cx="119.6" cy="111.76" rx="73.77" ry="72.85"/><path class="cls-2" d="M321.66,171.15c0-32.76-29.55-59.46-66.54-60.73a68.23,68.23,0,0,0-53.21-25.78c-24.07,0-45.26,12.69-57.68,32a56.34,56.34,0,0,0-21.52-4.26c-31.68,0-57.37,26.13-57.37,58.36,0,27.31,18.45,50.24,43.37,56.59A22.22,22.22,0,0,0,119.43,230H235c5.54,1.25,11.17.27,17.16.27s8.42,1.25,13.95,0l8.22-.27a22.43,22.43,0,0,0,18.17-9.35C310.15,209.66,321.66,191.59,321.66,171.15Z"/><path class="cls-3" d="M77.68,190.67c0-32.23,25.69-58.36,57.37-58.36a56.34,56.34,0,0,1,21.52,4.26c12.42-19.26,33.62-31.95,57.68-31.95a68.29,68.29,0,0,1,53.22,25.77c21.68.75,40.79,10.24,52.91,24.56-7.6-25.29-33.31-44.14-64.24-45.21A68.27,68.27,0,0,0,202.92,84c-24.06,0-45.25,12.69-57.68,32a56.26,56.26,0,0,0-21.52-4.26C92,111.66,66.36,137.78,66.36,170a58.68,58.68,0,0,0,14,38.13A59.19,59.19,0,0,1,77.68,190.67Z"/><path class="cls-2" d="M257.09,237.83c0-32.77-29.55-59.46-66.54-60.74a68.26,68.26,0,0,0-53.21-25.78c-24.07,0-45.26,12.7-57.68,32A56.34,56.34,0,0,0,58.14,179C26.46,179,.77,205.13.77,237.36c0,27.32,18.45,50.24,43.37,56.6a22.22,22.22,0,0,0,10.72,2.75H170.45c5.54,1.25,11.17.26,17.16.26s8.42,1.25,14,0l8.21-.26A22.44,22.44,0,0,0,228,287.35C245.58,276.33,257.09,258.26,257.09,237.83Z"/><path class="cls-3" d="M11.33,257c0-32.22,25.68-58.35,57.36-58.35a56.34,56.34,0,0,1,21.52,4.26c12.43-19.26,33.62-32,57.68-32a68.27,68.27,0,0,1,53.22,25.77c21.68.75,40.8,10.24,52.91,24.56C246.42,196,220.71,177.1,189.78,176a68.27,68.27,0,0,0-53.22-25.78c-24.06,0-45.25,12.69-57.68,32A56.25,56.25,0,0,0,57.37,178C25.68,178,0,204.07,0,236.3a58.68,58.68,0,0,0,14,38.13A59.2,59.2,0,0,1,11.33,257Z"/><rect class="cls-1" x="112.75" width="10.53" height="30.88" rx="5.26"/><rect class="cls-1" x="198.68" y="47.58" width="10.53" height="30.88" rx="5.26" transform="translate(168.18 -147.42) rotate(63.18)"/><rect class="cls-1" x="29.53" y="148.65" width="10.53" height="30.88" rx="5.26" transform="translate(165.54 59.01) rotate(63.18)"/><rect class="cls-1" x="64.53" y="13.64" width="10.53" height="30.88" rx="5.26" transform="translate(145.2 23.67) rotate(153.28)"/><rect class="cls-1" x="29.69" y="50.65" width="10.53" height="30.88" rx="5.26" transform="translate(109.62 69.95) rotate(120.83)"/><rect class="cls-1" x="16.98" y="98.59" width="10.53" height="30.88" rx="5.26" transform="translate(137.44 98.95) rotate(93.57)"/><rect class="cls-1" x="161.75" y="14.51" width="10.53" height="30.88" rx="5.26" transform="translate(42.75 -85.59) rotate(32.75)"/></g></g></svg>