<svg xmlns="http://www.w3.org/2000/svg" viewBox="0 0 181.2 191.64"><defs><style>.cls-1{fill:#ddd7e2;}.cls-2{fill:#ffe7a4;}.cls-3{fill:#f7d57f;}.cls-4{fill:#bfbfbf;opacity:0.6;}</style></defs><title>Asset 18</title><g id="Layer_2" data-name="Layer 2"><g id="Layer_2-2" data-name="Layer 2"><path class="cls-1" d="M75.34,119.72a1,1,0,0,0-1.92.54c.23,17.47-34.77,15.42-43,22.28-5.44,4.54-9.5,30.1-4.75,49.1H141.29c15.83,0,11.08-1.58,11.08-19s1.59-26.93-11.08-34.85c-12.22-7.63-39.6-4.75-37.89-18.33.13-1-2.09,0-2.63.9-5,8.37-4.34,0-13.34,0S79.4,126.18,75.34,119.72Z"/><path class="cls-2" d="M176.13,103H150.79a4.76,4.76,0,0,1,0-9.51h25.34a4.76,4.76,0,0,1,0,9.51Z"/><path class="cls-2" d="M152.57,47.5,137.13,60a4.75,4.75,0,0,0,6.45,7L159,54.48a4.75,4.75,0,1,0-6.45-7Z"/><path class="cls-2" d="M27.05,45.92,42.49,58.37a4.75,4.75,0,1,1-6.45,7L20.6,52.89a4.75,4.75,0,1,1,6.45-7Z"/><path class="cls-2" d="M57.45,22.35l7.23,18.47a4.75,4.75,0,0,0,8.6-4L66,18.3a4.75,4.75,0,0,0-8.59,4.05Z"/><path class="cls-2" d="M119,22.34l-7.21,18.48a4.75,4.75,0,0,1-8.6-4l7.21-18.48a4.75,4.75,0,1,1,8.6,4.05Z"/><path class="cls-3" d="M82.55,4.78l.14,31.67a4.75,4.75,0,1,0,9.5-.05L92.05,4.73a4.75,4.75,0,1,0-9.5,0Z"/><path class="cls-3" d="M147.52,25.25,130.19,49.08a4.75,4.75,0,0,1-7.62-5.68L139.9,19.57a4.75,4.75,0,0,1,7.62,5.68Z"/><path class="cls-3" d="M177.93,74.7,150,84.2a4.75,4.75,0,1,1-3-9L175,65.67a4.75,4.75,0,1,1,3,9Z"/><path class="cls-3" d="M3.28,76.28l27.88,9.5a4.75,4.75,0,1,0,3-9L6.23,67.25a4.75,4.75,0,1,0-3,9Z"/><path class="cls-3" d="M30.52,26.83,47.85,50.66A4.75,4.75,0,1,0,55.46,45L38.14,21.15a4.75,4.75,0,1,0-7.62,5.68Z"/><path class="cls-4" d="M103.4,119.46c.13-1-2.09,0-2.63.9-5,8.37-4.34,0-13.34,0s-8,5.81-12.09-.65a1,1,0,0,0-1.92.54,10.72,10.72,0,0,1-2.28,6.91c5,5,11,8.39,17.09,9,6.44.7,12.89-3.52,18.09-9.67A7.3,7.3,0,0,1,103.4,119.46Z"/><path class="cls-2" d="M30.41,103H5.07a4.76,4.76,0,0,1,0-9.51H30.41a4.76,4.76,0,1,1,0,9.51Z"/><path class="cls-1" d="M88.72,57C72.49,55.74,59.22,70.87,59,89.87s14.15,36.63,28.77,38.42,29.61-21.77,29.81-36C117.84,70.09,113.11,58.94,88.72,57Z"/></g></g></svg>