<svg xmlns="http://www.w3.org/2000/svg" viewBox="0 0 200.88 285.41"><defs><style>.cls-1{fill:#f76666;}.cls-2{fill:#aedff4;}.cls-3{opacity:0.49;}.cls-4{fill:#181a21;}.cls-5{fill:#fffad7;}.cls-6{opacity:0.9;}.cls-7{fill:#9dc4d1;}</style></defs><title>Asset 7</title><g id="Layer_2" data-name="Layer 2"><g id="Layer_3" data-name="Layer 3"><polygon class="cls-1" points="30.51 256.84 54.45 256.84 54.45 285.41 42.9 273.86 30.93 282.89 30.51 256.84"/><path class="cls-2" d="M2,6.85C2,16.09.34,240.27.34,240.27s-4.2,15.11,16.8,16.79,159.53-1.68,159.53-1.68,23.5-12.59,23.5-27.71V36.24c0-16.79-15.11-33.59-26-33.59S21.33,1,11.26,1,2,6.85,2,6.85Z"/><g class="cls-3"><polygon class="cls-4" points="26.79 258.66 21.36 258.66 21.36 2.08 27.54 1.72 26.79 258.66"/></g><rect class="cls-5" x="2.47" y="60.27" width="198.41" height="81.44"/><g class="cls-6"><polygon class="cls-4" points="140.32 81.56 140.32 85.71 29.64 85.71 29.48 80.98 140.32 81.56"/></g><g class="cls-6"><polygon class="cls-4" points="140.32 98.59 140.32 102.75 29.64 102.75 29.48 98.02 140.32 98.59"/></g><rect class="cls-7" x="146.54" y="0.06" width="16.27" height="260.35"/><rect class="cls-2" x="150.29" y="0.09" width="9.59" height="260.26"/><polygon class="cls-7" points="156.58 260.52 154.03 260.43 153.78 0 156.5 0 156.58 260.52"/></g></g></svg>