<svg xmlns="http://www.w3.org/2000/svg" viewBox="0 0 149.01 101.5"><defs><style>.cls-1{fill:#f7f7f7;}.cls-2{fill:#c47e4e;}.cls-3{fill:#b7b4b2;}.cls-4{fill:#c6e0df;}</style></defs><title>Asset 20</title><g id="Layer_2" data-name="Layer 2"><g id="Layer_2-2" data-name="Layer 2"><path class="cls-1" d="M145.61,84.49H3.4a3.4,3.4,0,0,0,0,6.8H9c.54,3.06,2.68,10.21,10.7,10.21,10.21,0,108.87-.68,115-.68,4.14,0,6.15-5.78,7-9.53h3.88a3.4,3.4,0,0,0,0-6.8Z"/><path class="cls-1" d="M130.65.46H22c-.07,1.6-.12,3.22-.12,4.84,0,2.14.05,4.25.14,6.35C9.46,15.21.51,23,.54,36.27.59,54.52,17.61,62.33,37.64,63c8.75,11.41,21.43,18.47,38.7,18.47,38.79,0,54.44-35.59,54.44-76.13C130.78,3.68,130.73,2.06,130.65.46ZM11.24,36.24c0-7.43,4.58-12.32,11.52-15.14,1.33,12,4.27,23.19,9,32.55C20.15,51.91,11.27,46.54,11.24,36.24Z"/><path class="cls-2" d="M32.9,7.26c-.07,1.3-.1,2.6-.1,3.91,0,32.68,12.61,61.37,43.88,61.37s43.89-28.69,43.89-61.37c0-1.31,0-2.61-.1-3.91,0,0-13.85,9.19-22,9.19s-12.25-6.12-21.1-6.12-13.6,5.44-22.45,4.76S50.34,6.92,32.9,7.26Z"/><rect class="cls-3" x="40.24" y="10.46" width="27.64" height="6.8" transform="translate(39.55 67.75) rotate(-89.32)"/><path class="cls-4" d="M57.29,51.49H51.85c-7.48,0-8.17-1.36-8.17-8.16V33.12c0-7.48.69-8.16,8.17-8.16h5.44c8.17,0,8.17,1.36,8.17,8.16V43.33C65.46,50.13,64.78,51.49,57.29,51.49Z"/></g></g></svg>