<svg xmlns="http://www.w3.org/2000/svg" viewBox="0 0 207.5 223.28"><defs><style>.cls-1{fill:#c4ddff;}.cls-2{fill:#00090a;}.cls-2,.cls-3{opacity:0.1;}.cls-3{fill:#000405;}</style></defs><title>Asset 15</title><g id="Layer_2" data-name="Layer 2"><g id="Layer_3" data-name="Layer 3"><ellipse class="cls-1" cx="103.49" cy="94.21" rx="26.63" ry="25.21"/><path class="cls-2" d="M90.05,94.21c0-11.77,8.51-21.66,20-24.43a28,28,0,0,0-6.59-.78C88.78,69,76.86,80.28,76.86,94.21s11.92,25.21,26.63,25.21a28.58,28.58,0,0,0,6.59-.78C98.56,115.86,90.05,106,90.05,94.21Z"/><path class="cls-1" d="M76.69,175.19c-1.53-52.61,12.07-50.85,27-50.85s28-2.42,27,50.85c-.82,40-12.07,47.66-26.95,47.66S77.82,214,76.69,175.19Z"/><path class="cls-3" d="M92.15,175.19C91,135,98.65,126.52,109,124.78c-1.89-.06-3.83,0-5.8,0-14.89,0-28.49-1.76-27,50.85,1.13,38.76,12.07,47.66,27,47.66a27.87,27.87,0,0,0,8.87-1.27C100.86,219.07,93.09,207.53,92.15,175.19Z"/><path class="cls-1" d="M151.81,146.65a9.32,9.32,0,0,1-5.16-1.54,8.26,8.26,0,0,1-2.23-11.89,51.62,51.62,0,0,0,10.1-30.88c0-28.35-22.61-51.41-50.4-51.41S53.71,74,53.71,102.34a51.68,51.68,0,0,0,9.57,30.14,8.26,8.26,0,0,1-2.45,11.85A9.32,9.32,0,0,1,48.32,142a68.44,68.44,0,1,1,110.89,1A9.21,9.21,0,0,1,151.81,146.65Z"/><path class="cls-1" d="M179.78,169.67a9.37,9.37,0,0,1-5.16-1.54,8.25,8.25,0,0,1-2.22-11.89,87.19,87.19,0,0,0,17.06-52.12c0-48-38.45-87-85.71-87S18,56.12,18,104.12A87.25,87.25,0,0,0,34.2,155a8.26,8.26,0,0,1-2.45,11.85,9.33,9.33,0,0,1-12.51-2.31A103.68,103.68,0,0,1,0,104.12C0,46.71,46.54,0,103.75,0S207.5,46.71,207.5,104.12A103.56,103.56,0,0,1,187.18,166,9.15,9.15,0,0,1,179.78,169.67Z"/></g></g></svg>