<svg xmlns="http://www.w3.org/2000/svg" viewBox="0 0 144.86 155.21"><defs><style>.cls-1{fill:#3f2717;}.cls-2{fill:#ed290f;}.cls-3{fill:#fff;}.cls-4{fill:#f8eaac;}.cls-5{fill:#f7df79;}.cls-6{fill:#f7f7f7;}.cls-7{fill:#ea503f;}</style></defs><title>Asset 19</title><g id="Layer_2" data-name="Layer 2"><g id="Layer_2-2" data-name="Layer 2"><path class="cls-1" d="M7.08,144.35a44.15,44.15,0,0,1,1.49-12.63,7.41,7.41,0,0,0,.11-4.35c-1.66-5.51-3-11.12-4.35-16.72C.42,94.78-1.12,79,4.14,63.23c1.7-5.11,1.55-10.45.78-15.79a3.52,3.52,0,0,0-.55-1.69C1,41,1.39,38.42,5.74,35L16,33.62c5.08,2.26,6.09,4.71,4.06,10.11A4.56,4.56,0,0,0,20,46,40,40,0,0,0,26,62.86,64.34,64.34,0,0,1,34.79,86.1c1.7,10.94,2,21.94,2,33,0,3.34-.69,6.73,1.54,9.81A21,21,0,0,1,41.44,136c1.24,4.84,3.57,9.93-1.49,13.93L12.1,153.51C8.22,151.8,7.12,148.5,7.08,144.35Z"/><path class="cls-2" d="M0,81.8c0-1.8.66-2.43,2.44-2.64,9-1.06,18-2.14,27-3.51,2.65-.41,3.45.51,4,2.85A144.9,144.9,0,0,1,36.1,98.6c.16,1.89-.84,2-2.12,2.13-4.72.59-9.43,1.21-14.14,1.82-4.94.63-9.87,1.28-14.8,1.9-1,.13-2.19.62-2.51-1.18C1.25,96.16,0,89.06,0,81.8Z"/><path class="cls-3" d="M23.67,98.26c1.93-.25,3.86-.45,5.77-.76a2.66,2.66,0,0,0,2.36-3.37,2.57,2.57,0,0,0-3-2.43c-4.06.45-8.12,1-12.16,1.59a2.54,2.54,0,0,0-2.23,3.16A2.65,2.65,0,0,0,17.59,99C19.62,98.83,21.65,98.52,23.67,98.26Z"/><path class="cls-3" d="M8.65,100.21c1.85-.28,3-1.3,2.65-3.44s-1.83-2.65-3.65-2.39a2.66,2.66,0,0,0-2.53,3.25A2.74,2.74,0,0,0,8.65,100.21Z"/><path class="cls-4" d="M143.42,51.43c.91-4,.34-13.3-5.6-15a3.52,3.52,0,0,1-2.51-2.7c-.86-4.67-2.39-7.76-6-8.35a3.57,3.57,0,0,1-3-4.31c1.84-8.09-1.19-20.66-10.15-15a3.57,3.57,0,0,0-.84.76c-4,5-5.43,2.35-5.82,1.17A3.57,3.57,0,0,0,109,7c-1.77-2.22-8.56-9.8-14-2.81a3.52,3.52,0,0,1-5.37.31C85.21-.24,78-3.17,74.66,5.9A3.55,3.55,0,0,1,70.13,8a13.2,13.2,0,0,0-11.23.65c-2.45,1.33-4.18,5-5.21,7.8a3.47,3.47,0,0,1-4,2.22c-4.29-.94-10.85.95-8.78,8.17a3.47,3.47,0,0,1-2.26,4.23,4.87,4.87,0,0,0-3.4,4.48,3.5,3.5,0,0,1-2.56,3.27c-3.89,1-3.85,4-1.44,11,3.08,8.94,84.46,13.51,109.94,4.13A3.53,3.53,0,0,0,143.42,51.43Z"/><path class="cls-5" d="M142.39,47.41c1.7-1.13.64-3.11.41-5.13-.3-2.73-1.32-6.28-7.08-6.28-9.34,0-5.79,1.56-5.79,9.34s6.23,6.22,10.9,3.11Z"/><path class="cls-5" d="M99.4,31.26a4.12,4.12,0,0,0,1.83-3.9c-.23-2.08-1-4.78-5.39-4.78-7.11,0-5.93,1.18-5.93,7.11s4.74,4.74,8.3,2.37Z"/><path class="cls-5" d="M49.4,46.26c1.29-.86,0-2.36-.17-3.9-.23-2.08-1-4.78-5.39-4.78-7.11,0-3.93,1.18-3.93,7.11s4.74,4.74,8.3,2.37Z"/><path class="cls-6" d="M29.26,45c-1,.2,7,102,10,105s83,6,87,4,21-106,17-108S34.26,44,29.26,45Z"/><path class="cls-5" d="M108.26,44.33c1.09-.73-.3-2-.45-3.3-.19-1.75-.85-4-4.55-4-6,0-3,1-3,6s4,4,7,2Z"/><path class="cls-5" d="M80.26,36.33A3.5,3.5,0,0,0,81.81,33c-.19-1.75-.85-4-4.55-4-6,0-5,1-5,6s4,4,7,2Z"/><path class="cls-5" d="M88.39,20.41a5.44,5.44,0,0,0,2.41-5.13C90.5,12.55,89.48,9,83.72,9c-9.34,0-7.79,1.56-7.79,9.34s6.23,6.22,10.9,3.11Z"/><path class="cls-7" d="M94.39,154.79c3.67.16,7.36.3,11,.42a3.51,3.51,0,0,0,3.62-3.36l4.47-103.76A3.52,3.52,0,0,0,110,44.42l-17.65-.07a3.52,3.52,0,0,0-3.52,3.56C89,72.07,91.27,132.57,91,151.23A3.51,3.51,0,0,0,94.39,154.79Z"/><path class="cls-7" d="M74.61,153.66a91.85,91.85,0,0,1-9.21-1,3.52,3.52,0,0,1-3-3.27L56,48.16a3.52,3.52,0,0,1,3.49-3.74c4.42,0,9.16-.05,13.6-.06a3.5,3.5,0,0,1,3.52,3.5c.11,24,1,83.33,1.67,102.15A3.54,3.54,0,0,1,74.61,153.66Z"/><path class="cls-7" d="M144.26,46c-.76-.38-5.12-.68-11.74-.93a3.53,3.53,0,0,0-3.65,3.31l-6.21,102.08a3.48,3.48,0,0,0,4.41,3.61.69.69,0,0,0,.19-.07c2.07-1,7.63-29.43,12-56.84l4.93-36.46C145,52.15,145.17,46.45,144.26,46Z"/><path class="cls-7" d="M51.67,148.25,45.61,47.86a3.52,3.52,0,0,0-3.45-3.31c-5.93-.13-13.15-.7-13.9-.55-1,.2,7,103,10,106,.38.38,5.13,1.28,9.36,1.94A3.52,3.52,0,0,0,51.67,148.25Z"/></g></g></svg>