<svg xmlns="http://www.w3.org/2000/svg" viewBox="0 0 496.28 328.61"><defs><style>.cls-1{fill:#494949;}.cls-2{fill:#fff;}.cls-3{fill:#898888;}.cls-4{fill:#212121;opacity:0.4;}.cls-5{fill:#60371b;}.cls-6{fill:#15420a;}.cls-7{fill:#1c5e0d;}.cls-8{fill:#20770e;}.cls-9{fill:#0c0703;opacity:0.2;}</style></defs><title>Asset 16</title><g id="Layer_2" data-name="Layer 2"><g id="Layer_3" data-name="Layer 3"><polygon class="cls-1" points="496.23 306.88 302.99 308.31 398.38 140.25 496.23 306.88"/><polygon class="cls-2" points="398.04 138.74 363.89 198.92 364.02 198.92 385.56 184.65 386.43 198.76 387.66 198.75 396.97 182.34 406.52 198.61 407.37 198.6 411.95 179 432.67 198.42 433.08 198.41 398.04 138.74"/><polygon class="cls-3" points="419.64 307.71 67.16 310.31 241.15 3.75 419.64 307.71"/><polygon class="cls-2" points="240.55 1 178.24 110.78 178.49 110.78 217.77 84.75 219.36 110.48 221.6 110.46 238.59 80.53 256.01 110.21 257.56 110.19 265.9 74.44 303.71 109.86 304.46 109.85 240.55 1"/><polygon class="cls-4" points="240.55 0 419.64 306.71 347.74 307.04 240.55 0"/><polygon class="cls-4" points="398.04 138.74 496.28 306.13 460.06 306.46 398.04 138.74"/><path class="cls-5" d="M75.05,322l-39,.44L37.44,321c4.72-4.77,7.25-10.45,7.25-16.28v-74.8H62v73.66c0,6.16,3.57,12.06,9.88,16.31Z"/><polygon class="cls-6" points="42.11 222.82 0 297.48 0.17 297.48 26.72 279.77 27.79 297.27 29.31 297.26 40.79 276.91 52.56 297.09 53.61 297.08 59.25 272.76 78.25 289.42 78.76 289.41 42.11 222.82"/><polygon class="cls-6" points="67.01 222.28 30.09 289.77 30.26 289.77 51.62 279.24 52.69 296.74 53.57 294.55 65.68 276.37 77.46 296.55 78.51 296.54 84.14 272.23 109.69 296.31 110.2 296.31 67.01 222.28"/><polygon class="cls-7" points="53.26 186.11 4.01 260.77 4.21 260.77 35.26 243.07 36.52 260.56 38.29 260.55 51.71 240.2 65.49 260.38 66.71 260.37 73.3 236.06 103.18 260.14 103.78 260.14 53.26 186.11"/><polygon class="cls-8" points="52.58 158.46 14.58 225.42 14.73 225.42 38.69 209.54 39.66 225.24 41.03 225.23 51.39 206.97 62.02 225.07 62.97 225.07 68.05 203.26 91.11 224.86 91.57 224.86 52.58 158.46"/><path class="cls-9" d="M54.93,323.14H75.85l-3-2C66.53,316.87,63,311,63,304.81V284.05l2.74-4.85,4.09,3.86,8.59,14.72h1.05l1.07-4.62-.38-.87h.51l.68-2.63,3.76-16.18,25.55,24.08h.51l-33.61-57.6,26.58,21.43h.6L68.19,207.86l.78-3.38L92,226.09h.47L54.75,161.81h.18Z"/><path class="cls-5" d="M357.34,314.62l-19.38.22.71-.72a11.51,11.51,0,0,0,3.59-8.08V268.91h8.62v36.57c0,3.06,1.77,6,4.9,8.09Z"/><polygon class="cls-6" points="340.98 265.38 320.08 302.44 320.16 302.44 333.34 293.66 333.88 302.34 334.63 302.34 340.33 292.23 346.17 302.25 346.69 302.25 349.49 290.18 358.92 298.44 359.18 298.44 340.98 265.38"/><polygon class="cls-6" points="353.34 265.12 335.02 298.62 335.1 298.62 345.7 293.39 346.23 302.08 346.67 300.99 352.69 291.97 358.53 301.99 359.05 301.98 361.85 289.91 374.53 301.87 374.79 301.87 353.34 265.12"/><polygon class="cls-7" points="346.52 247.16 322.07 284.22 322.17 284.22 337.58 275.43 338.21 284.12 339.09 284.12 345.75 274.01 352.59 284.03 353.2 284.03 356.47 271.95 371.3 283.91 371.6 283.91 346.52 247.16"/><polygon class="cls-8" points="346.18 233.43 327.31 266.68 327.39 266.68 339.29 258.79 339.77 266.58 340.45 266.58 345.59 257.52 350.87 266.5 351.34 266.5 353.86 255.67 365.31 266.4 365.54 266.39 346.18 233.43"/><path class="cls-9" d="M347.35,315.19h10.38l-1.49-1c-3.13-2.11-4.9-5-4.9-8.1v-10.3l1.35-2.41,2,1.92,4.26,7.3h.52l.53-2.29-.19-.44h.26l.33-1.3,1.87-8,12.68,12h.25l-16.68-28.59,13.2,10.64h.3L353.93,258l.39-1.68L365.77,267H366l-18.74-31.9h.09Z"/><path class="cls-5" d="M129.38,328l-19.38.22.71-.72a11.53,11.53,0,0,0,3.6-8.08V282.33h8.61V318.9c0,3.05,1.77,6,4.9,8.09Z"/><polygon class="cls-6" points="113.02 278.8 92.12 315.87 92.2 315.86 105.38 307.07 105.92 315.76 106.67 315.76 112.37 305.65 118.21 315.67 118.73 315.67 121.53 303.6 130.96 311.86 131.22 311.86 113.02 278.8"/><polygon class="cls-6" points="125.38 278.54 107.06 312.04 107.14 312.04 117.74 306.81 118.28 315.5 118.72 314.41 124.73 305.39 130.57 315.41 131.09 315.4 133.89 303.33 146.57 315.29 146.83 315.29 125.38 278.54"/><polygon class="cls-7" points="118.56 260.58 94.11 297.64 94.21 297.64 109.63 288.85 110.25 297.54 111.13 297.54 117.79 287.43 124.63 297.45 125.24 297.45 128.51 285.38 143.34 297.33 143.64 297.33 118.56 260.58"/><polygon class="cls-8" points="118.22 246.85 99.36 280.1 99.43 280.1 111.33 272.21 111.81 280 112.49 280 117.63 270.94 122.91 279.92 123.38 279.92 125.9 269.09 137.35 279.82 137.58 279.81 118.22 246.85"/><path class="cls-9" d="M119.39,328.61h10.38l-1.49-1c-3.13-2.11-4.9-5-4.9-8.1V309.2l1.35-2.41,2,1.92L131,316h.52l.53-2.29-.19-.44h.26l.34-1.3,1.86-8,12.68,12h.26L130.6,287.3l13.2,10.64h.3L126,271.38l.39-1.68,11.45,10.73H138l-18.74-31.9h.09Z"/></g></g></svg>