<svg xmlns="http://www.w3.org/2000/svg" viewBox="0 0 107.69 140.71"><defs><style>.cls-1{fill:#e2c3af;}.cls-2{fill:#3faa51;}.cls-3{fill:#aad692;}.cls-4{fill:#a5dbd8;}.cls-5{opacity:0.1;}.cls-6{fill:#868989;}.cls-7{fill:#dda687;}</style></defs><title>Asset 22</title><g id="Layer_2" data-name="Layer 2"><g id="Layer_2-2" data-name="Layer 2"><path class="cls-1" d="M57.32,140.71h0c-18.5-3-35.5-20-35.5-35.5v-10a35.6,35.6,0,0,1,35.5-35.5h0a35.61,35.61,0,0,1,35.5,35.5v10C91.82,121.71,76.82,137.71,57.32,140.71Z"/><circle class="cls-2" cx="44.07" cy="95.71" r="12"/><circle class="cls-3" cx="43.92" cy="95.57" r="8"/><ellipse class="cls-2" cx="43.92" cy="99.29" rx="1.14" ry="2"/><ellipse class="cls-2" cx="43.69" cy="91.57" rx="1.14" ry="2"/><ellipse class="cls-2" cx="47.64" cy="95.57" rx="2" ry="1.14"/><ellipse class="cls-2" cx="39.64" cy="95.57" rx="2" ry="1.14"/><circle class="cls-2" cx="72.03" cy="95.71" r="12"/><circle class="cls-3" cx="71.88" cy="95.57" r="8"/><ellipse class="cls-2" cx="71.88" cy="99.29" rx="1.14" ry="2"/><ellipse class="cls-2" cx="71.65" cy="91.57" rx="1.14" ry="2"/><ellipse class="cls-2" cx="75.6" cy="95.57" rx="2" ry="1.14"/><ellipse class="cls-2" cx="67.6" cy="95.57" rx="2" ry="1.14"/><path class="cls-4" d="M79.82,17.91S70.63-9.95,41.46,3.82C11.63,17.91,14.82,37.63,14.82,51.71"/><path class="cls-4" d="M96.82,102.72a18.42,18.42,0,0,1-2-.34c-2.72-.35-2.07-1.59-2-6.67,0-.28-1.26-13.95-9-21C76.51,68.07,55.3,64,49.16,64.65a6,6,0,0,1-1.34-11.93c3-.33,45.31-8.09,55,6,11,16,0,39-.34,40A6,6,0,0,1,96.82,102.72Z"/><g class="cls-5"><path class="cls-6" d="M18.82,110.71c-4-3-7.76-3.56-8.72-7.19-.65-2.42-14-40.95-2.28-54.14,11.49-12.9,34.84-26.48,47-29.58,12.66-3.22,27.92-5.85,34-4.07,7,2,14.75,17.23,16,25,3,18.66.7,18-6,17-7.21-1.1-23-8.33-37.06-1.44-9,4.43-24,11.44-32.94,21.44-5,5.61-6.22,16-6,20,.27,5.18,3,16,1,17C23.17,115,19.5,110.71,18.82,110.71Z"/></g><g class="cls-5"><path class="cls-6" d="M15.82,106.71c-4-3-7.76-3.56-8.72-7.19-.65-2.42-14-40.95-2.28-54.14,11.49-12.9,34.84-26.48,47-29.58,12.66-3.22,27.92-5.85,34-4.07,7,2,14.75,17.23,16,25,3,18.66.7,18-6,17-7.21-1.1-23-8.33-37.06-1.44-9,4.43-24,11.44-32.94,21.44-5,5.61-6.22,16-6,20,.27,5.18,3,16,1,17C20.17,111,16.5,106.71,15.82,106.71Z"/></g><path class="cls-4" d="M17.8,109.7c-4-3-8.74-6.33-9.7-9.89-.65-2.37-14-40.16-2.28-53.1,11.49-12.64,34.84-26,47-29,12.66-3.16,27.92-5.73,34-4,7,2,16.74,20.11,18,27.71,3,18.29-.29,16.3-7,15.29-7.21-1.08-24-10-38.06-3.23-9,4.34-23,13.42-31.94,23.23-5,5.5-6.22,15-6,19,.27,5.08,3,17,1,18C22.17,114,18.49,109.7,17.8,109.7Z"/><path class="cls-7" d="M40.57,117.71h-13c-1.8,0-3.25-2-3.25-4.5s1.45-4.5,3.25-4.5h13c1.79,0,3.25,2,3.25,4.5S42.36,117.71,40.57,117.71Z"/><path class="cls-7" d="M89.57,117.71h-13c-1.8,0-3.25-2-3.25-4.5s1.45-4.5,3.25-4.5h13c1.79,0,3.25,2,3.25,4.5S91.36,117.71,89.57,117.71Z"/></g></g></svg>