<svg xmlns="http://www.w3.org/2000/svg" viewBox="0 0 221.5 227.9"><defs><style>.cls-1{fill:#ddf0f2;}.cls-2{fill:#c1e3e5;}.cls-3{fill:#b8d7e8;}.cls-4{fill:#d7ebff;}.cls-5{fill:#e6fafc;}.cls-6{fill:#f7f7f7;}.cls-7{fill:#bfbfbf;opacity:0.1;}.cls-8{fill:#ffe7a4;}</style></defs><title>Asset 17</title><g id="Layer_2" data-name="Layer 2"><g id="Layer_2-2" data-name="Layer 2"><ellipse class="cls-1" cx="85.04" cy="96.67" rx="13.98" ry="13.44"/><ellipse class="cls-1" cx="85.04" cy="83.86" rx="13.98" ry="13.44"/><ellipse class="cls-2" cx="80.02" cy="103.07" rx="16.64" ry="16"/><ellipse class="cls-3" cx="66.58" cy="85.78" rx="14.72" ry="14.08"/><ellipse class="cls-4" cx="55.7" cy="100.51" rx="16.64" ry="16"/><ellipse class="cls-1" cx="28.81" cy="101.79" rx="16.64" ry="16"/><ellipse class="cls-5" cx="31.37" cy="86.42" rx="16.64" ry="16"/><ellipse class="cls-1" cx="54.31" cy="74.9" rx="13.98" ry="13.44"/><ellipse class="cls-1" cx="198.99" cy="97.95" rx="13.98" ry="13.44"/><ellipse class="cls-2" cx="181.17" cy="90.26" rx="16.64" ry="16"/><ellipse class="cls-3" cx="167.73" cy="72.98" rx="14.72" ry="14.08"/><path class="cls-6" d="M14.72,116.51v47.14c0,18.3,13.74,33.62,31.7,36.76-2.55,2.75-4.84,5-6.13,6.13a11.52,11.52,0,0,0,15.42,17.12c.54-.47,12-10.89,19.56-22.65h65c7.46,12.27,19.8,23.44,20.35,23.93a11.52,11.52,0,0,0,15.42-17.12c-1.49-1.35-4.33-4.11-7.38-7.49,18.69-3.41,33-19.42,33-38.52v-45.3Z"/><ellipse class="cls-4" cx="156.84" cy="87.7" rx="16.64" ry="16"/><ellipse class="cls-1" cx="129.96" cy="88.98" rx="16.64" ry="16"/><ellipse class="cls-1" cx="110.75" cy="88.98" rx="16.64" ry="16"/><ellipse class="cls-2" cx="108.19" cy="87.7" rx="16.64" ry="16"/><rect class="cls-7" x="14.72" y="116.51" width="186.93" height="12.8"/><path class="cls-6" d="M211.9,121.63H9.6c-5.3,0-9.6-9.42-9.6-14.72a9.6,9.6,0,0,1,9.6-9.6H211.9a9.6,9.6,0,0,1,9.6,9.6C221.5,112.21,217.2,121.63,211.9,121.63Z"/><ellipse class="cls-5" cx="132.52" cy="73.62" rx="16.64" ry="16"/><ellipse class="cls-5" cx="141.48" cy="16" rx="16.64" ry="16"/><ellipse class="cls-5" cx="99.12" cy="50.57" rx="13.98" ry="13.44"/><ellipse class="cls-1" cx="155.46" cy="62.1" rx="13.98" ry="13.44"/><path class="cls-8" d="M36.49,97.31H90a0,0,0,0,1,0,0v46.85a9.09,9.09,0,0,1-9.09,9.09H45.58a9.09,9.09,0,0,1-9.09-9.09V97.31A0,0,0,0,1,36.49,97.31Z"/></g></g></svg>