<svg xmlns="http://www.w3.org/2000/svg" viewBox="0 0 92.96 206.09"><defs><style>.cls-1{fill:#ffe9a1;}</style></defs><title>Asset 14</title><g id="Layer_2" data-name="Layer 2"><g id="Layer_3" data-name="Layer 3"><path class="cls-1" d="M36.66,117.34c1.56,8.7,9.83,61.78,10.74,71.2s1,16.38-9.71,17.42-14.92-3.61-15.43-28.28-1.75-50.52-2.36-56.8-1.49-8.73-5.5-10.87A21.22,21.22,0,0,1,3.15,92.09C2.8,82,1.24,53,.33,43.57s0-13.3,4.42-13.1,4.5,7.16,4.91,17.9,1.15,18.26,3,23.79,7.82,8.74,6.9-.67S16.59,41.36,16.6,35s7.18-10.84,8.53,3l3.49,35.78c.61,6.28,6.3,5.36,7.66,2.39,1.7-3.7.18-7.26-.74-16.7-.88-9-1.3-17.27-2.31-22.89C31.48,26.89,38.75,23,40.58,34c2.59,15.6,8.29,46.08,9.27,56.13s-4.55,11.85-8.45,17.3S36.24,115,36.66,117.34Z"/><path class="cls-1" d="M91.29,15.9c0,12.1.72,136.71,1.43,150.24s0,22.07-4.27,29.19-19.23,3.56-21.36-1.42.71-20.65,2.13-39.16,5.7-29.91,2.85-37-9.26-9.25-11.39-15-2.85-19.23,0-31.33,7.83-39.87,13.53-50.56S81.33,7.36,84.89,2.37,91.29-.48,91.29,15.9Z"/></g></g></svg>