<svg xmlns="http://www.w3.org/2000/svg" viewBox="0 0 214.31 211.29"><defs><style>.cls-1{fill:#3f2514;}.cls-2{fill:#bdcb50;}.cls-3{fill:#d8d874;}.cls-4{fill:#793f18;}.cls-5{fill:#fff;opacity:0.2;}</style></defs><title>Asset 12</title><g id="Layer_2" data-name="Layer 2"><g id="Layer_3" data-name="Layer 3"><path class="cls-1" d="M200.11,13.22c21,18.85,17.67,65.58-3.07,88.45s-31,78.21-69.86,99.41S49.88,206.93,24.27,187l-3.71-3.24c-19.88-20-30-58.67-8.65-97.27S89,37.73,112.07,17.15s70.12-23.88,89.1-3"/><path class="cls-2" d="M192,18.46c19.32,17.48,16.26,60.83-2.83,82.05s-28.52,72.54-64.32,92.2-71.17,5.43-94.75-13.07l-3.42-3C8.34,158.11-1,122.22,18.67,86.42s71-45.22,92.21-64.32,64.57-22.15,82-2.83"/><path class="cls-3" d="M175.9,34.54c15.7,14.2,13.22,49.42-2.3,66.66s-23.17,58.94-52.26,74.92-57.83,4.41-77-10.62l-2.78-2.44C26.71,148,19.13,118.84,35.11,89.75S92.8,53,110,37.49s52.45-18,66.66-2.3"/><path class="cls-4" d="M53.57,121.55c0,21.77,14,33.65,35,33.65s38-17.65,38-39.43-14-33.65-35-33.65S53.57,99.77,53.57,121.55Z"/><path class="cls-5" d="M66.42,106.7c0,8.1.22,7.52,8,7.52A14.41,14.41,0,0,0,88.58,99.55c0-8.1-.22-7.51-8-7.51A14.4,14.4,0,0,0,66.42,106.7Z"/></g></g></svg>