<svg xmlns="http://www.w3.org/2000/svg" viewBox="0 0 132.82 184.56"><defs><style>.cls-1,.cls-8{fill:#fafcfc;}.cls-2{fill:#a9dffd;}.cls-3{fill:#58d7f9;}.cls-4{opacity:0.1;}.cls-5,.cls-6,.cls-7{fill:#acf4fc;}.cls-5{opacity:0.3;}.cls-6{opacity:0.5;}.cls-7{opacity:0.2;}.cls-8{opacity:0.6;}</style></defs><title>Asset 8</title><g id="Layer_2" data-name="Layer 2"><g id="Layer_3" data-name="Layer 3"><path class="cls-1" d="M2.14,30.33S17.87,147.46,19.62,163.19s3.5,20.11,15.74,21,57.69,0,66.43,0,7.87-7.86,11.36-23.6S129.75,24.94,132.38,12c1.72-8.42-1.28-10.42-14-10.48C105.26,1.41,23.12-1.14,10,.61S-.48,7.6,2.14,30.33Z"/><path class="cls-2" d="M13.51,49.38s13,87.39,14.44,99.13,2.89,15,13,15.66,47.65,0,54.87,0,6.5-5.87,9.39-17.61S119.65,45.47,121.09,35.68s-.72-8.48-11.55-7.82-78.7-2-89.53-.66S11.34,32.42,13.51,49.38Z"/><ellipse class="cls-3" cx="66.3" cy="29.62" rx="54.39" ry="4.68"/><path class="cls-4" d="M119.27,1.16C113.55,1,93.93,1,73.27.52V184.18c13.29-.11,26.24-.33,30.39-.33,8.22,0,7.4-7.87,10.68-23.6s17.08-135.42,18.07-148.6C133.1,2.55,130.1,1.55,119.27,1.16Z"/><ellipse class="cls-5" cx="93.52" cy="144.08" rx="5.02" ry="5.94"/><ellipse class="cls-6" cx="66.22" cy="136.27" rx="3.32" ry="6.59"/><ellipse class="cls-6" cx="57.53" cy="113.63" rx="4.94" ry="5.05"/><ellipse class="cls-7" cx="69.48" cy="60.86" rx="4.94" ry="5.05"/><ellipse class="cls-7" cx="83.27" cy="89.36" rx="2.47" ry="2.52"/><ellipse class="cls-5" cx="86.27" cy="120.81" rx="3.71" ry="3.46"/><ellipse class="cls-5" cx="90.78" cy="112.21" rx="2.86" ry="3.46"/><ellipse class="cls-5" cx="98.04" cy="107.53" rx="2.78" ry="2.59"/><ellipse class="cls-5" cx="108.93" cy="83.29" rx="2.78" ry="2.59"/><rect class="cls-6" x="26.69" y="65.85" width="12.75" height="72.95" rx="6.38" transform="translate(-15.3 6.28) rotate(-8.82)"/><rect class="cls-8" x="22.88" y="40.23" width="12.75" height="72.95" rx="6.38" transform="translate(-11.42 5.39) rotate(-8.82)"/></g></g></svg>