<svg xmlns="http://www.w3.org/2000/svg" viewBox="0 0 317.89 97.93"><defs><style>.cls-1,.cls-3{fill:#090a0c;}.cls-1{opacity:0.1;}.cls-2{fill:#4865a1;}.cls-3{opacity:0.2;}.cls-4,.cls-7{fill:none;stroke-miterlimit:10;}.cls-4{stroke:#00c1e9;stroke-width:12px;}.cls-5{fill:#3c578f;}.cls-6{opacity:0.6;}.cls-7{stroke:#afcbce;stroke-width:6px;}</style></defs><title>Asset 5</title><g id="Layer_2" data-name="Layer 2"><g id="Layer_2-2" data-name="Layer 2"><path class="cls-1" d="M237.09,66.71a3.94,3.94,0,0,0,.35-.88l2.18-13a5.67,5.67,0,0,0,.08-2l.48-3a7.76,7.76,0,0,0-5.35-8.39l-.2-.07A39.24,39.24,0,0,0,227.4,31a9,9,0,0,0-6.66-1.88L41.64,50.52c-4,.26-11.2.89-15.58,3a8.93,8.93,0,0,0-5,11.25l7.85,24.83c1.64,5.19,3.37,6.52,5.87,6.52L36,95.79c5-1.2,7.81-6.42,6.16-11.61L41,66.49"/><ellipse class="cls-2" cx="281.12" cy="27.7" rx="27.4" ry="20.03" transform="translate(0.25 57.78) rotate(-11.74)"/><path class="cls-2" d="M40.92,59.44l184.61-6a7.22,7.22,0,0,1,1.67.16c6.53,1.25,19.55-1,21.39-8.07l3.09-16.57c1.56-6-5.33-21.1-11.12-26.81A7.28,7.28,0,0,0,233.83.17L48.32,39c-5.29.76-15.8,2.58-19.23,7.48A8.92,8.92,0,0,0,28,53l2.23,4.22c0,3.92,4,4,8.77,2.55A7.53,7.53,0,0,1,40.92,59.44Z"/><path class="cls-3" d="M52.41,59.72l172.81.81c.53,0,1.07,0,1.61.1,6.39.61,18.22-.06,18.57-2.87l-.34-6.61c.3-2.39-9.16-8.58-15.74-11a16.9,16.9,0,0,0-6.72-.9L55.38,51.64c-4.83.21-14.38.76-16.66,2.67A1.7,1.7,0,0,0,39,56.89l2.93,1.74c.72,1.57,4.53,1.67,8.77,1.18A12.65,12.65,0,0,1,52.41,59.72Z"/><path class="cls-2" d="M50.6,93.76l-2.66-1c-2.39-1.26-3.26-1.82-6.21-6.93L27.63,61.42c-2.95-5.11-1.55-11.48,3.1-14.17l1.13-.65c4.65-2.68,16.22-2.28,19.16,2.82l3.23,26.66C67.58,85.34,56.64,97.53,50.6,93.76Z"/><line class="cls-4" x1="157.04" y1="90.27" x2="0.9" y2="91.93"/><line class="cls-4" x1="179.99" y1="90.02" x2="170.46" y2="90.13"/><line class="cls-4" x1="317.82" y1="88.56" x2="205.34" y2="89.75"/><rect class="cls-5" x="219.95" y="0.35" width="30.64" height="82.85" rx="12"/><path class="cls-5" d="M284.9,70.64V76c0,4.29-3.56,6.2-7.84,6.2L241.59,83.8a7.81,7.81,0,0,1-7.8-7.79V70.64a7.82,7.82,0,0,1,7.8-7.79l36,2.94C281.83,65.79,285.63,68.73,284.9,70.64Z"/><g class="cls-6"><line class="cls-7" x1="156.17" y1="87.21" x2="0.03" y2="88.88"/><line class="cls-7" x1="179.12" y1="86.97" x2="169.59" y2="87.07"/><line class="cls-7" x1="316.95" y1="85.5" x2="204.47" y2="86.7"/></g></g></g></svg>