<svg xmlns="http://www.w3.org/2000/svg" viewBox="0 0 317.09 152.04"><defs><style>.cls-1,.cls-3,.cls-6{fill:#090a0c;}.cls-1{opacity:0.1;}.cls-2{fill:#4865a1;}.cls-3{opacity:0.2;}.cls-4,.cls-8{fill:none;stroke-miterlimit:10;}.cls-4{stroke:#00c1e9;stroke-width:12px;}.cls-5{fill:#3c578f;}.cls-6{opacity:0.05;}.cls-7{opacity:0.6;}.cls-8{stroke:#afcbce;stroke-width:6px;}</style></defs><title>Asset 6</title><g id="Layer_2" data-name="Layer 2"><g id="Layer_2-2" data-name="Layer 2"><path class="cls-1" d="M239.94,128.4a7,7,0,0,1-2-4.12l-.26-2.85L233,70.51a4.15,4.15,0,0,0,.11-.93L232,56.45a5.43,5.43,0,0,0-.42-1.92l-.28-3A7.77,7.77,0,0,0,224,44.75h-.21a38.5,38.5,0,0,0-9.13-6.36,8.93,8.93,0,0,0-6.92-.15L39.8,104c-3.85,1.26-10.62,3.67-14.33,6.78a8.93,8.93,0,0,0-2,12.15L37.28,145c2.89,4.61,4.9,5.46,7.32,4.83l1.11-.58c4.56-2.43,5.93-8.19,3-12.8l-5.58-16.82,163.38-38a48.67,48.67,0,0,0,1.72,4.7L226,143.44c1.95,4.17,8.64,2.52,11.74.68a6.63,6.63,0,0,0,.81-.58l1-.83a7.3,7.3,0,0,0,1.53-1.66A10.22,10.22,0,0,0,239.94,128.4Z"/><ellipse class="cls-2" cx="265.83" cy="21.68" rx="27.4" ry="20.03" transform="translate(17.93 120.07) rotate(-26.31)"/><path class="cls-2" d="M41.35,112.83,218.49,60.54a7.88,7.88,0,0,1,1.66-.27c6.64-.42,18.67-5.86,18.67-13.18l-1.18-16.82c0-6.2-10.46-19.08-17.51-23.15a7.32,7.32,0,0,0-7-.19L43.37,91.21c-4.93,2.06-14.64,6.46-16.73,12.07a8.91,8.91,0,0,0,.56,6.54l3.22,3.53c.93,3.8,4.84,2.86,9.13.26A7.17,7.17,0,0,1,41.35,112.83Z"/><path class="cls-3" d="M52.54,110.21,220,67.53c.51-.13,1-.23,1.58-.32,6.35-1,17.62-4.63,17.25-7.45l-2-6.31c-.31-2.38-11-6-18-6.66a16.62,16.62,0,0,0-6.73.82l-158.73,54c-4.63,1.42-13.73,4.35-15.46,6.77a1.71,1.71,0,0,0,.88,2.45l3.27.94c1.09,1.34,4.8.48,8.78-1.06A13.91,13.91,0,0,1,52.54,110.21Z"/><path class="cls-2" d="M49.8,147.87l-2.66-1c-2.39-1.26-3.26-1.82-6.21-6.93l-14.1-24.42c-2.95-5.11-1.55-11.48,3.1-14.17l1.13-.65c4.65-2.68,16.22-2.28,19.17,2.82l3.22,26.66C66.78,139.45,55.84,151.64,49.8,147.87Z"/><line class="cls-4" x1="156.25" y1="144.38" x2="0.1" y2="146.04"/><line class="cls-4" x1="179.19" y1="144.13" x2="169.66" y2="144.23"/><line class="cls-4" x1="317.02" y1="142.66" x2="204.54" y2="143.86"/><path class="cls-5" d="M247.37,117.56a8.08,8.08,0,0,1-2-4.56l-.27-3.16-5.49-65-1.05-12.39h0a8.13,8.13,0,0,0-1.14-3.52,13.6,13.6,0,0,0-15.66-9.81l-5.68,1.09a13.63,13.63,0,0,0-10.78,15.9l3.52,12.58c.27,1.41.6,2.72.92,3.87.67,2.45,3.66,14.31,5.37,18.38l18,63.29c2,4.62,8.8,2.79,12,.76a8.46,8.46,0,0,0,.83-.65l1-.92a8,8,0,0,0,1.55-1.83A12.08,12.08,0,0,0,247.37,117.56Z"/><path class="cls-6" d="M232.88,125.09a12.71,12.71,0,0,1-.88-3l-.38-2.07L217.83,61.72l-1.47-8.15h0a14.38,14.38,0,0,0-.59-2.29c-1.07-4.42-3-3-4.38-1.85l-1.09.9c-1.4,1.17-.41,1.24.62,6l1.28,6.1a24.65,24.65,0,0,1,1.54,4.45c0,.11,0,.22.08.33.38,1.6,2.2,9.33,3,12l16.8,56.57c1.13,2.44,4.12,2.45,4.4,2a1.24,1.24,0,0,0,.11-.45l.13-.64a6.64,6.64,0,0,0,.14-1.26C238.43,127.75,234,127.55,232.88,125.09Z"/><g class="cls-7"><line class="cls-8" x1="156.17" y1="141.38" x2="0.03" y2="143.04"/><line class="cls-8" x1="179.12" y1="141.13" x2="169.59" y2="141.23"/><line class="cls-8" x1="316.95" y1="139.66" x2="204.47" y2="140.86"/></g></g></g></svg>